<?xml version="1.0" encoding="UTF-8" standalone="no"?>
<svg
   height="76.8479"
   viewBox="0 0 504.96406 76.848266"
   width="504.96747"
   version="1.1"
   id="svg37"
   sodipodi:docname="Columbia_University_logo.svg"
   xmlns:inkscape="http://www.inkscape.org/namespaces/inkscape"
   xmlns:sodipodi="http://sodipodi.sourceforge.net/DTD/sodipodi-0.dtd"
   xmlns="http://www.w3.org/2000/svg"
   xmlns:svg="http://www.w3.org/2000/svg">
  <defs
     id="defs37" />
  <sodipodi:namedview
     id="namedview37"
     pagecolor="#ffffff"
     bordercolor="#000000"
     borderopacity="0.25"
     inkscape:showpageshadow="2"
     inkscape:pageopacity="0.0"
     inkscape:pagecheckerboard="0"
     inkscape:deskcolor="#d1d1d1" />
  <path
     d="M 66.697875,38.537728 C 63.117823,35.3942 62.168246,31.303929 62.168246,27.760727 c 0,-2.484494 0.766747,-6.794443 4.274517,-10.010254 2.629056,-2.412211 6.099976,-3.873427 11.543751,-3.873427 2.264814,0 3.616899,0.14598 5.296377,0.365658 1.387517,0.18283 2.558192,0.51164 3.65375,0.620769 0.401091,0.03543 0.54707,0.218261 0.54707,0.439357 0,0.291959 -0.109131,0.729899 -0.18283,2.009704 -0.07228,1.206106 -0.03543,3.215809 -0.10913,3.944292 -0.03685,0.548489 -0.109131,0.840447 -0.43794,0.840447 -0.29196,0 -0.365659,-0.291958 -0.365659,-0.802181 -0.03543,-1.135241 -0.51022,-2.412211 -1.424366,-3.360371 -1.206107,-1.279805 -4.054839,-2.267649 -7.415212,-2.267649 -3.17896,0 -5.260946,0.803597 -6.868141,2.267649 -2.667323,2.447643 -3.36179,5.917146 -3.36179,9.461764 0,8.6936 6.613031,13.003552 11.508318,13.003552 3.249825,0 5.222679,-0.36424 6.685313,-2.046555 0.620769,-0.690216 1.095558,-1.748925 1.241537,-2.40796 0.109131,-0.585337 0.18283,-0.732734 0.474789,-0.732734 0.255111,0 0.328809,0.257945 0.328809,0.548487 0,0.439357 -0.437939,3.6169 -0.803598,4.859862 -0.182829,0.62076 -0.328809,0.80217 -0.949577,1.06012 -1.461216,0.58392 -4.23767,0.84045 -6.576183,0.84045 -5.003,-0.002 -9.203819,-1.09981 -12.530176,-3.983979"
     id="path1"
     style="fill:#000d74;stroke:#000d74;stroke-width:3.11804;stroke-dasharray:none;stroke-opacity:1" />
  <path
     d="m 92.162154,30.433718 c 0,-5.226931 3.453913,-11.978856 12.623716,-11.978856 7.6108,0 12.34877,4.431837 12.34877,11.430368 0,6.998532 -4.89104,12.531597 -12.6549,12.531597 -8.77155,0 -12.317586,-6.571932 -12.317586,-11.983109 m 20.693716,0.582502 c 0,-6.846882 -3.94288,-11.09589 -8.9558,-11.09589 -3.51627,0 -7.520089,1.957265 -7.520089,9.566645 0,6.35792 3.516273,11.402022 9.383809,11.402022 2.1401,0 7.09208,-1.038861 7.09208,-9.872777"
     id="path2"
     style="fill:#000d74;stroke:#000d74;stroke-width:3.11804;stroke-dasharray:none;stroke-opacity:1" />
  <path
     d="m 128.08313,33.123716 c 0,3.914529 0,6.022025 0.64203,6.573347 0.52014,0.459195 1.31381,0.671797 3.6991,0.671797 1.61995,0 2.81188,-0.02973 3.5758,-0.854625 0.36707,-0.398256 0.73415,-1.254294 0.79509,-1.835379 0.0297,-0.273535 0.0907,-0.457782 0.3359,-0.457782 0.21401,0 0.24378,0.150233 0.24378,0.520143 0,0.333061 -0.21402,2.627643 -0.45779,3.51344 -0.18283,0.67179 -0.33589,0.82486 -1.92609,0.82486 -4.40206,0 -6.41744,-0.18425 -8.89344,-0.18425 -0.70438,0 -2.62905,0.0921 -3.85216,0.0921 -0.39684,0 -0.61227,-0.0921 -0.61227,-0.30755 0,-0.15165 0.12331,-0.24378 0.49039,-0.24378 0.45778,0 0.82485,-0.061 1.09981,-0.1233 0.61084,-0.12189 0.76391,-0.79367 0.88721,-1.679477 0.15165,-1.284056 0.15165,-3.699103 0.15165,-6.513822 v -5.379992 c 0,-4.644429 0,-5.501884 -0.061,-6.476973 -0.061,-1.040284 -0.30471,-1.529246 -1.31382,-1.743255 -0.24519,-0.06094 -0.61085,-0.0907 -1.0091,-0.0907 -0.3359,0 -0.51873,-0.06094 -0.51873,-0.274952 0,-0.214009 0.21259,-0.274952 0.6718,-0.274952 1.43711,0 3.36178,0.09212 4.18806,0.09212 0.73273,0 2.96494,-0.09212 4.15689,-0.09212 0.42801,0 0.64202,0.06094 0.64202,0.274952 0,0.214009 -0.18424,0.274952 -0.55133,0.274952 -0.33588,0 -0.82485,0.02977 -1.19051,0.0907 -0.82628,0.153066 -1.07147,0.674626 -1.13241,1.743255 -0.0609,0.975089 -0.0609,1.832544 -0.0609,6.476973 z"
     id="path3"
     style="fill:#000d74;stroke:#000d74;stroke-width:3.11804;stroke-dasharray:none;stroke-opacity:1" />
  <path
     d="m 143.27212,27.746554 c 0,-4.645845 0,-5.503301 -0.0609,-6.479807 -0.0623,-1.03745 -0.30613,-1.529246 -1.31381,-1.741838 -0.2452,-0.06094 -0.76533,-0.08929 -1.19336,-0.08929 -0.33589,0 -0.51872,-0.06094 -0.51872,-0.274953 0,-0.212591 0.2126,-0.273534 0.67179,-0.273534 1.61995,0 3.54603,0.08929 4.4616,0.08929 0.73557,0 2.66024,-0.08929 3.76147,-0.08929 0.45778,0 0.67178,0.06094 0.67178,0.273534 0,0.21401 -0.18283,0.274953 -0.48896,0.274953 -0.3359,0 -0.51872,0.02977 -0.8858,0.08929 -0.82628,0.151649 -1.07005,0.673208 -1.13099,1.741838 -0.0609,0.976506 -0.0609,1.833962 -0.0609,6.479807 v 4.27877 c 0,4.431836 0.8858,6.298396 2.38387,7.520091 1.37476,1.130992 2.78213,1.252872 3.81957,1.252872 1.34642,0 2.99614,-0.426592 4.21784,-1.649711 1.6823,-1.680895 1.77443,-4.431837 1.77443,-7.579616 v -3.820988 c 0,-4.645847 0,-5.503301 -0.0609,-6.479808 -0.0609,-1.037449 -0.30613,-1.529245 -1.31524,-1.741837 -0.24519,-0.06095 -0.76391,-0.0907 -1.09981,-0.0907 -0.33588,0 -0.52013,-0.06094 -0.52013,-0.274953 0,-0.212591 0.214,-0.273535 0.64201,-0.273535 1.55902,0 3.4851,0.08929 3.51487,0.08929 0.36707,0 2.29316,-0.08929 3.48509,-0.08929 0.42802,0 0.64203,0.06095 0.64203,0.273535 0,0.21401 -0.18284,0.274953 -0.55133,0.274953 -0.33589,0 -0.51872,0.02977 -0.8858,0.0907 -0.82485,0.151648 -1.07004,0.673208 -1.13098,1.741837 -0.0609,0.976507 -0.0609,1.833961 -0.0609,6.479808 v 3.271083 c 0,3.394387 -0.33589,6.998531 -2.90401,9.199568 -2.16985,1.865144 -4.37088,2.201034 -6.35792,2.201034 -1.61995,0 -4.55513,-0.0907 -6.78451,-2.107492 -1.55901,-1.405944 -2.72119,-3.669341 -2.72119,-8.102595 z"
     id="path4"
     style="fill:#000d74;stroke:#000d74;stroke-width:3.11804;stroke-dasharray:none;stroke-opacity:1" />
  <path
     d="m 172.0004,19.004767 c 0.0921,-0.520142 0.27495,-0.796512 0.52013,-0.796512 0.24377,0 0.42802,0.153067 0.82486,0.948162 l 8.34354,17.2398 8.31518,-17.452392 c 0.21118,-0.49038 0.39542,-0.73557 0.67179,-0.73557 0.27638,0 0.45778,0.306133 0.54991,0.948162 l 2.78211,18.889515 c 0.27497,1.926088 0.58109,2.811885 1.49807,3.089665 0.88722,0.27212 1.49949,0.30472 1.89633,0.30472 0.27354,0 0.48896,0.0297 0.48896,0.21259 0,0.24377 -0.36707,0.33731 -0.7951,0.33731 -0.76391,0 -4.98316,-0.0935 -6.20486,-0.18566 -0.70296,-0.0596 -0.8858,-0.15165 -0.8858,-0.3359 0,-0.15022 0.1219,-0.24376 0.33449,-0.33306 0.18282,-0.0638 0.27494,-0.45919 0.15306,-1.316649 L 188.6591,26.368957 h -0.12188 l -6.66405,13.878007 c -0.70297,1.438543 -0.85604,1.712083 -1.13099,1.712083 -0.27494,0 -0.58108,-0.61227 -1.07004,-1.52641 -0.73274,-1.407364 -3.14779,-6.084391 -3.51487,-6.940428 -0.27494,-0.64061 -2.1089,-4.491362 -3.17895,-6.784522 h -0.12189 l -1.59019,12.16452 c -0.0609,0.551322 -0.0921,0.948164 -0.0921,1.438535 0,0.579675 0.39825,0.856045 0.91839,0.977925 0.54991,0.12048 0.97792,0.15165 1.28264,0.15165 0.2452,0 0.45919,0.061 0.45919,0.21259 0,0.27496 -0.27494,0.33731 -0.73272,0.33731 -1.28548,0 -2.66025,-0.0935 -3.21014,-0.0935 -0.58109,0 -2.04796,0.0935 -3.02589,0.0935 -0.30613,0 -0.55132,-0.0623 -0.55132,-0.33731 0,-0.15165 0.18283,-0.21259 0.49037,-0.21259 0.24519,0 0.45779,0 0.91557,-0.0921 0.85603,-0.18283 1.09981,-1.374761 1.25287,-2.41505 l 3.04715,-19.928382 z"
     id="path5"
     style="fill:#000d74;stroke:#000d74;stroke-width:3.11804;stroke-dasharray:none;stroke-opacity:1" />
  <path
     d="m 204.61202,27.746554 c 0,-4.645845 0,-5.503301 -0.0624,-6.479807 -0.0609,-1.038867 -0.30613,-1.529246 -1.31523,-1.741838 -0.24377,-0.06094 -0.7625,-0.09212 -1.19052,-0.09212 -0.33732,0 -0.52014,-0.06094 -0.52014,-0.272118 0,-0.215426 0.214,-0.274952 0.67461,-0.274952 1.61997,0 3.54462,0.08929 4.1569,0.08929 1.49806,0 2.68857,-0.08929 3.72886,-0.08929 5.53165,0 6.50958,2.963533 6.50958,4.584902 0,2.505753 -1.43572,4.000984 -3.11661,5.3474 2.50717,0.856038 5.56282,3.025894 5.56282,6.600276 0,3.2725 -2.53551,6.66548 -8.1607,6.66548 -0.73414,0 -3.51485,-0.18425 -4.43182,-0.18425 -0.70298,0 -2.62765,0.0921 -3.85218,0.0921 -0.39542,0 -0.61084,-0.0921 -0.61084,-0.30613 0,-0.15448 0.12188,-0.24519 0.48896,-0.24519 0.45777,0 0.82485,-0.061 1.09981,-0.12331 0.61084,-0.12188 0.76392,-0.79509 0.8858,-1.68089 0.15306,-1.282638 0.15306,-3.697686 0.15306,-6.512404 z m 3.66652,0.520141 c 0,0.243773 0.0907,0.304716 0.21259,0.334479 0.27494,0.05953 0.73556,0.09212 1.43852,0.09212 1.00912,0 1.6809,-0.123304 2.20105,-0.581085 0.79509,-0.643446 1.25287,-1.741838 1.25287,-3.239904 0,-2.046552 -1.19193,-4.737969 -3.82099,-4.737969 -0.42801,0 -0.70297,0 -1.00768,0.06094 -0.21402,0.06094 -0.27496,0.182829 -0.27496,0.520141 z m 4.03498,2.443392 c -0.64203,-0.459198 -1.34499,-0.673208 -2.53692,-0.734151 -0.54991,-0.02977 -0.85605,-0.02977 -1.31383,-0.02977 -0.1233,0 -0.18423,0.06236 -0.18423,0.21401 v 7.245138 c 0,2.01679 0.0907,2.536936 1.07003,2.932353 0.82486,0.3359 1.52783,0.36567 2.22939,0.36567 1.37759,0 3.69911,-0.732745 3.69911,-3.910288 0.001,-1.894905 -0.64063,-4.4616 -2.96355,-6.082969"
     id="path6"
     style="fill:#000d74;stroke:#000d74;stroke-width:3.11804;stroke-dasharray:none;stroke-opacity:1" />
  <path
     d="m 225.82871,27.746554 c 0,-4.645845 0,-5.503301 -0.0609,-6.479807 -0.0609,-1.03745 -0.36707,-1.559008 -1.03887,-1.712075 -0.33589,-0.0907 -0.73273,-0.121886 -1.09839,-0.121886 -0.30614,0 -0.48896,-0.06095 -0.48896,-0.306132 0,-0.182829 0.24378,-0.243773 0.73274,-0.243773 1.16075,0 3.08683,0.08929 3.97263,0.08929 0.76533,0 2.56953,-0.08929 3.73171,-0.08929 0.39541,0 0.64061,0.06095 0.64061,0.243773 0,0.245188 -0.18425,0.306132 -0.48896,0.306132 -0.30614,0 -0.54992,0.02977 -0.9184,0.0907 -0.82486,0.15165 -1.06864,0.67321 -1.12958,1.741839 -0.0624,0.975089 -0.0624,1.83396 -0.0624,6.479807 v 5.379997 c 0,2.963534 0,5.379997 0.12329,6.693813 0.0907,0.824855 0.30614,1.376185 1.22313,1.499495 0.42801,0.061 1.09981,0.12188 1.55901,0.12188 0.33447,0 0.49037,0.0893 0.49037,0.24519 0,0.21259 -0.24518,0.30613 -0.58108,0.30613 -2.01679,0 -3.9443,-0.0921 -4.76915,-0.0921 -0.70297,0 -2.62765,0.0921 -3.85075,0.0921 -0.39684,0 -0.61085,-0.0921 -0.61085,-0.30613 0,-0.15448 0.12189,-0.24519 0.48896,-0.24519 0.45779,0 0.82486,-0.061 1.09839,-0.12188 0.61227,-0.12331 0.79652,-0.64345 0.88581,-1.529254 0.15306,-1.28264 0.15306,-3.699103 0.15306,-6.662638 z"
     id="path7"
     style="fill:#000d74;stroke:#000d74;stroke-width:3.11804;stroke-dasharray:none;stroke-opacity:1" />
  <path
     d="m 244.42344,34.010934 c -0.15448,0 -0.21543,0.06094 -0.27638,0.243772 l -1.65113,4.372311 c -0.30472,0.762498 -0.4592,1.498064 -0.4592,1.86373 0,0.5499 0.27638,0.94815 1.22453,0.94815 h 0.45778 c 0.36707,0 0.45637,0.061 0.45637,0.24378 0,0.24377 -0.18284,0.30613 -0.51731,0.30613 -0.97935,0 -2.29175,-0.0907 -3.2399,-0.0907 -0.33589,0 -2.01679,0.0907 -3.60699,0.0907 -0.39684,0 -0.58107,-0.0623 -0.58107,-0.30613 0,-0.18283 0.12188,-0.24378 0.36708,-0.24378 0.27636,0 0.70295,-0.0312 0.94673,-0.061 1.40736,-0.18424 1.98845,-1.223107 2.5993,-2.750936 l 7.67033,-19.197065 c 0.3699,-0.8858 0.55131,-1.220278 0.85744,-1.220278 0.27354,0 0.45637,0.273536 0.7625,0.976506 0.73557,1.682312 5.62519,14.151547 7.58244,18.79881 1.15792,2.752353 2.0494,3.178963 2.68859,3.332023 0.45637,0.0907 0.91557,0.12331 1.27981,0.12331 0.24802,0 0.39967,0.0297 0.39967,0.24376 0,0.24378 -0.27637,0.30614 -1.40736,0.30614 -1.09698,0 -3.33203,0 -5.77684,-0.0623 -0.5499,-0.0297 -0.91556,-0.0297 -0.91556,-0.24376 0,-0.18283 0.1233,-0.24377 0.42802,-0.27496 0.21401,-0.061 0.42802,-0.33447 0.27495,-0.70297 l -2.44905,-6.478387 c -0.0609,-0.153067 -0.15165,-0.21401 -0.30473,-0.21401 h -6.81285 v -0.0029 z m 6.23462,-1.527829 c 0.15305,0 0.18424,-0.0907 0.15305,-0.184245 l -2.75094,-7.549855 c -0.0297,-0.121887 -0.0623,-0.273535 -0.15164,-0.273535 -0.0936,0 -0.15308,0.151648 -0.18425,0.273535 l -2.81047,7.521508 c -0.0312,0.121887 0,0.212592 0.12188,0.212592 z"
     id="path8"
     style="fill:#000d74;stroke:#000d74;stroke-width:3.11804;stroke-dasharray:none;stroke-opacity:1" />
  <path
     d="m 277.17678,24.984274 c 0,-5.554323 0,-6.576182 -0.0737,-7.745439 -0.0779,-1.242955 -0.36567,-1.826874 -1.56894,-2.083403 -0.29337,-0.0737 -0.91413,-0.10913 -1.42719,-0.10913 -0.39967,0 -0.62077,-0.0737 -0.62077,-0.327391 0,-0.256528 0.25795,-0.328809 0.80219,-0.328809 1.936,0 4.23908,0.10913 5.33463,0.10913 0.8773,0 3.17755,-0.10913 4.49278,-0.10913 0.54991,0 0.80502,0.07369 0.80502,0.328809 0,0.25511 -0.2211,0.327391 -0.58677,0.327391 -0.40107,0 -0.61934,0.03543 -1.05727,0.10913 -0.98644,0.184248 -1.2784,0.803598 -1.35352,2.083403 -0.0723,1.169257 -0.0723,2.191116 -0.0723,7.745439 v 5.113548 c 0,5.29496 1.06012,7.52576 2.84873,8.986977 1.64688,1.352088 3.32919,1.496648 4.57072,1.496648 1.6072,0 3.57864,-0.510225 5.04127,-1.97002 2.00971,-2.009704 2.11884,-5.297796 2.11884,-9.06351 v -4.563643 c 0,-5.554323 0,-6.576182 -0.0737,-7.745439 -0.0751,-1.242955 -0.36564,-1.826874 -1.57176,-2.083403 -0.29054,-0.0737 -0.91413,-0.10913 -1.31523,-0.10913 -0.40109,0 -0.62077,-0.0737 -0.62077,-0.327391 0,-0.256528 0.25653,-0.328809 0.76391,-0.328809 1.86515,0 4.16539,0.10913 4.20224,0.10913 0.44078,0 2.74102,-0.10913 4.16398,-0.10913 0.51163,0 0.76816,0.07369 0.76816,0.328809 0,0.25511 -0.21827,0.327391 -0.65903,0.327391 -0.4011,0 -0.62077,0.03543 -1.05872,0.10913 -0.98642,0.184248 -1.27697,0.803598 -1.35208,2.083403 -0.0723,1.169257 -0.0723,2.191116 -0.0723,7.745439 v 3.908859 c 0,4.05484 -0.4025,8.36479 -3.47092,10.995262 -2.59079,2.227972 -5.22551,2.630482 -7.59805,2.630482 -1.936,0 -5.44234,-0.11055 -8.10826,-2.522763 -1.86513,-1.679482 -3.25265,-4.380818 -3.25265,-9.68003 z"
     id="path9"
     style="fill:#000d74;stroke:#000d74;stroke-width:3.11804;stroke-dasharray:none;stroke-opacity:1" />
  <path
     d="m 310.19942,37.83334 c 0.0609,2.383871 0.45779,3.177537 1.06864,3.391557 0.52013,0.18425 1.0998,0.21542 1.5916,0.21542 0.3359,0 0.51731,0.061 0.51731,0.24519 0,0.24236 -0.27071,0.30471 -0.70297,0.30471 -1.9842,0 -3.21015,-0.0907 -3.78981,-0.0907 -0.27354,0 -1.71207,0.0907 -3.29943,0.0907 -0.39826,0 -0.67463,-0.0297 -0.67463,-0.30471 0,-0.18425 0.18282,-0.24519 0.48896,-0.24519 0.39543,0 0.94959,-0.0312 1.37902,-0.15307 0.79368,-0.24518 0.91556,-1.130989 0.9439,-3.79122 l 0.27638,-18.09442 c 0,-0.612267 0.0907,-1.038869 0.39541,-1.038869 0.33732,0 0.61228,0.396839 1.131,0.948161 0.36708,0.39684 5.01292,5.37858 9.47735,9.810418 2.07915,2.080567 6.20344,6.481223 6.72359,6.968768 h 0.15164 l -0.30472,-13.723529 c -0.0297,-1.863723 -0.30754,-2.444808 -1.03745,-2.750942 -0.45635,-0.184245 -1.19334,-0.184245 -1.62278,-0.184245 -0.36849,0 -0.49039,-0.08929 -0.49039,-0.273535 0,-0.24519 0.33733,-0.273535 0.79653,-0.273535 1.59018,0 3.05707,0.0907 3.69909,0.0907 0.33448,0 1.49807,-0.0907 2.99473,-0.0907 0.39399,0 0.70296,0.02976 0.70296,0.273535 0,0.184246 -0.18567,0.273535 -0.55274,0.273535 -0.30614,0 -0.5499,0 -0.91697,0.09212 -0.85605,0.24519 -1.09698,0.887218 -1.12958,2.597876 l -0.33447,19.286352 c 0,0.67462 -0.12472,0.94817 -0.39827,0.94817 -0.33589,0 -0.70438,-0.3359 -1.03745,-0.6718 -1.92325,-1.835373 -5.83778,-5.839195 -9.01532,-8.986974 -3.33486,-3.302264 -6.72358,-7.121836 -7.27774,-7.704338 h -0.0894 z"
     id="path10"
     style="fill:#000d74;stroke:#000d74;stroke-width:3.11804;stroke-dasharray:none;stroke-opacity:1" />
  <path
     d="m 338.43166,27.746554 c 0,-4.645845 0,-5.503301 -0.061,-6.479807 -0.0609,-1.03745 -0.36851,-1.559008 -1.03887,-1.712075 -0.33448,-0.0907 -0.73557,-0.121886 -1.0984,-0.121886 -0.30612,0 -0.49179,-0.06095 -0.49179,-0.306132 0,-0.182829 0.2466,-0.243773 0.73699,-0.243773 1.15792,0 3.08683,0.08929 3.97547,0.08929 0.76107,0 2.56669,-0.08929 3.72887,-0.08929 0.39541,0 0.64201,0.06095 0.64201,0.243773 0,0.245188 -0.18565,0.306132 -0.49036,0.306132 -0.30614,0 -0.55133,0.02977 -0.91699,0.0907 -0.82627,0.15165 -1.06862,0.67321 -1.12957,1.741839 -0.0623,0.975089 -0.0623,1.83396 -0.0623,6.479807 v 5.379997 c 0,2.963534 0,5.379997 0.1233,6.693813 0.0894,0.824855 0.30471,1.376185 1.2217,1.499495 0.42801,0.061 1.09839,0.12188 1.55901,0.12188 0.33447,0 0.48896,0.0893 0.48896,0.24519 0,0.21259 -0.24377,0.30613 -0.57968,0.30613 -2.01821,0 -3.94146,-0.0921 -4.76631,-0.0921 -0.70581,0 -2.63047,0.0921 -3.85359,0.0921 -0.39541,0 -0.61226,-0.0921 -0.61226,-0.30613 0,-0.15448 0.1233,-0.24519 0.49038,-0.24519 0.45637,0 0.82486,-0.061 1.09981,-0.12188 0.61085,-0.12331 0.79651,-0.64345 0.8858,-1.529254 0.15307,-1.28264 0.15307,-3.699103 0.15307,-6.662638 v -5.379996 z"
     id="path11"
     style="fill:#000d74;stroke:#000d74;stroke-width:3.11804;stroke-dasharray:none;stroke-opacity:1" />
  <path
     d="m 351.86747,21.877595 c -0.70155,-1.682312 -1.21885,-2.018207 -2.3215,-2.322923 -0.4592,-0.123303 -0.94958,-0.123303 -1.19335,-0.123303 -0.27496,0 -0.36849,-0.0907 -0.36849,-0.274952 0,-0.245191 0.33448,-0.274953 0.79791,-0.274953 1.62138,0 3.36038,0.09212 4.43185,0.09212 0.76391,0 2.2308,-0.09212 3.75579,-0.09212 0.36849,0 0.7058,0.06094 0.7058,0.274953 0,0.214009 -0.18423,0.274952 -0.45919,0.274952 -0.48896,0 -0.94957,0.02977 -1.19335,0.212592 -0.21117,0.153067 -0.30331,0.367075 -0.30331,0.642028 0,0.398255 0.27355,1.252876 0.70157,2.354104 l 5.25811,13.876592 h 0.12188 c 1.31382,-3.363206 5.28505,-13.204803 6.02203,-15.221593 0.15165,-0.396838 0.27069,-0.856037 0.27069,-1.130989 0,-0.243773 -0.11904,-0.488962 -0.39258,-0.579669 -0.3699,-0.123302 -0.82627,-0.153065 -1.22311,-0.153065 -0.27637,0 -0.52014,-0.02976 -0.52014,-0.24519 0,-0.24519 0.27496,-0.306133 0.85603,-0.306133 1.52642,0 2.80764,0.09212 3.20731,0.09212 0.52298,0 1.9601,-0.09212 2.87425,-0.09212 0.39684,0 0.64061,0.06094 0.64061,0.274953 0,0.214009 -0.18283,0.274952 -0.48756,0.274952 -0.30754,0 -0.94957,0 -1.50089,0.367077 -0.39542,0.273535 -0.85603,0.795094 -1.68373,2.749524 -1.19051,2.874245 -2.01538,4.522542 -3.66792,8.284004 -1.95443,4.463018 -3.39297,7.795044 -4.06335,9.324289 -0.79509,1.771602 -0.9765,2.261982 -1.40452,2.261982 -0.39684,0 -0.58108,-0.42802 -1.16075,-1.86514 z"
     id="path12"
     style="fill:#000d74;stroke:#000d74;stroke-width:3.11804;stroke-dasharray:none;stroke-opacity:1" />
  <path
     d="m 378.38479,27.746554 c 0,-4.645845 0,-5.503301 -0.0609,-6.479807 -0.0609,-1.03745 -0.30613,-1.529246 -1.31382,-1.741838 -0.24377,-0.06094 -0.76674,-0.08929 -1.19618,-0.08929 -0.33307,0 -0.51731,-0.06094 -0.51731,-0.274953 0,-0.212591 0.21543,-0.273534 0.67321,-0.273534 1.62279,0 3.54604,0.08929 4.40065,0.08929 0.97792,0 7.06089,0 7.64198,-0.02977 0.58109,-0.06094 1.07146,-0.123302 1.31665,-0.184246 0.15165,-0.02977 0.33449,-0.121886 0.48755,-0.121886 0.15306,0 0.18566,0.121886 0.18566,0.273535 0,0.214009 -0.15306,0.581085 -0.24377,1.987028 -0.0312,0.304714 -0.0922,1.651131 -0.15307,2.01679 -0.0297,0.153066 -0.0894,0.337312 -0.30471,0.337312 -0.21543,0 -0.27495,-0.153066 -0.27495,-0.428018 0,-0.214009 -0.0297,-0.735569 -0.18567,-1.101227 -0.21259,-0.548488 -0.51872,-0.91698 -2.04513,-1.09981 -0.52014,-0.06094 -3.73029,-0.121886 -4.34114,-0.121886 -0.15306,0 -0.21401,0.09212 -0.21401,0.304716 v 7.7341 c 0,0.214008 0.0312,0.335894 0.21401,0.335894 0.6718,0 4.1895,0 4.88962,-0.06094 0.73417,-0.06094 1.19193,-0.154483 1.46689,-0.457781 0.21401,-0.243773 0.3373,-0.398256 0.49179,-0.398256 0.12048,0 0.21118,0.06378 0.21118,0.24519 0,0.184246 -0.15165,0.673207 -0.24377,2.229382 -0.0609,0.613682 -0.1219,1.835378 -0.1219,2.049387 0,0.243773 0,0.579668 -0.27352,0.579668 -0.21544,0 -0.27637,-0.120469 -0.27637,-0.274952 -0.0297,-0.304716 -0.0297,-0.701554 -0.12331,-1.098393 -0.15165,-0.612265 -0.57824,-1.068629 -1.71065,-1.19335 -0.57967,-0.06236 -3.60698,-0.08929 -4.34113,-0.08929 -0.14881,0 -0.18284,0.121887 -0.18284,0.304716 v 2.415047 c 0,1.038866 -0.0283,3.849333 0,4.736551 0.061,2.108913 0.55133,2.569534 3.66793,2.569534 0.79793,0 2.08199,0 2.87282,-0.368502 0.79793,-0.365653 1.16218,-1.007682 1.37902,-2.261975 0.0581,-0.334478 0.11905,-0.457782 0.33307,-0.457782 0.24519,0 0.24519,0.245189 0.24519,0.549905 0,0.704388 -0.24519,2.782124 -0.39544,3.395814 -0.21259,0.79509 -0.49179,0.79509 -1.64971,0.79509 -4.61749,0 -6.66264,-0.18425 -8.47107,-0.18425 -0.70157,0 -2.62765,0.0922 -3.85076,0.0922 -0.39684,0 -0.61226,-0.0922 -0.61226,-0.30613 0,-0.15449 0.12472,-0.24519 0.49037,-0.24519 0.4592,0 0.82627,-0.061 1.09839,-0.12189 0.61368,-0.1233 0.76392,-0.79651 0.88864,-1.68231 0.15023,-1.28122 0.15023,-3.697684 0.15023,-6.510986 V 27.74663 Z"
     id="path13"
     style="fill:#000d74;stroke:#000d74;stroke-width:3.11804;stroke-dasharray:none;stroke-opacity:1" />
  <path
     d="m 399.37472,27.746554 c 0,-4.645845 0,-5.503301 -0.061,-6.479807 -0.0609,-1.038867 -0.30471,-1.527828 -1.31381,-1.741838 -0.24519,-0.06236 -0.76534,-0.08929 -1.19337,-0.08929 -0.33589,0 -0.52013,-0.06094 -0.52013,-0.274953 0,-0.214009 0.21543,-0.274952 0.67462,-0.274952 1.62137,0 3.54605,0.09212 4.18807,0.09212 1.03744,0 3.36038,-0.09212 4.30712,-0.09212 1.92749,0 3.97689,0.182829 5.63086,1.315237 0.85603,0.579667 2.07489,2.140092 2.07489,4.188063 0,2.26198 -0.94817,4.339714 -4.035,6.846883 2.72119,3.422733 4.82726,6.142494 6.63288,8.038816 1.71348,1.773024 2.96777,1.985614 3.42556,2.079154 0.33589,0.061 0.60943,0.0907 0.85462,0.0907 0.24378,0 0.3685,0.0907 0.3685,0.2452 0,0.24376 -0.21259,0.30613 -0.57966,0.30613 h -2.90544 c -1.71066,0 -2.47457,-0.15307 -3.27108,-0.58109 -1.31523,-0.70439 -2.47315,-2.140099 -4.18664,-4.492784 -1.22028,-1.683729 -2.62766,-3.761464 -3.02732,-4.220662 -0.15307,-0.182829 -0.33589,-0.212591 -0.54849,-0.212591 l -2.66166,-0.06095 c -0.15164,0 -0.24659,0.06095 -0.24659,0.24519 v 0.428018 c 0,2.841647 0,5.258111 0.15306,6.540751 0.0922,0.885798 0.27495,1.557588 1.19193,1.680898 0.45778,0.0609 1.12958,0.12329 1.5009,0.12329 0.24236,0 0.36566,0.0907 0.36566,0.24519 0,0.21259 -0.21258,0.30614 -0.60942,0.30614 -1.77445,0 -4.03785,-0.0922 -4.49562,-0.0922 -0.58108,0 -2.50859,0.0922 -3.7317,0.0922 -0.39543,0 -0.61085,-0.0922 -0.61085,-0.30614 0,-0.15306 0.1233,-0.24519 0.48896,-0.24519 0.4592,0 0.82627,-0.0623 1.10123,-0.12329 0.61084,-0.12331 0.76391,-0.7951 0.88581,-1.680898 0.15164,-1.28264 0.15164,-3.699104 0.15164,-6.510988 v -5.384249 z m 3.60698,2.413629 c 0,0.337312 0.0639,0.459199 0.27637,0.55274 0.6406,0.212592 1.559,0.304714 2.32576,0.304714 1.22027,0 1.61854,-0.123303 2.16701,-0.518724 0.91556,-0.674625 1.80137,-2.079151 1.80137,-4.58632 0,-4.339713 -2.8714,-5.59259 -4.67561,-5.59259 -0.76391,0 -1.31807,0.02977 -1.62279,0.123304 -0.21259,0.06094 -0.27353,0.182829 -0.27353,0.428018 v 9.288858 z"
     id="path14"
     style="fill:#000d74;stroke:#000d74;stroke-width:3.11804;stroke-dasharray:none;stroke-opacity:1" />
  <path
     d="m 422.63229,41.624567 c -0.49038,-0.21542 -0.58109,-0.3685 -0.58109,-1.04028 0,-1.682318 0.12189,-3.514862 0.15166,-4.003823 0.0297,-0.460616 0.12188,-0.795094 0.36849,-0.795094 0.27354,0 0.30754,0.273534 0.30754,0.520141 0,0.396839 0.1219,1.037449 0.27355,1.557592 0.67321,2.263401 2.47598,3.088254 4.36805,3.088254 2.75094,0 4.09878,-1.863724 4.09878,-3.483676 0,-1.499482 -0.45778,-2.935187 -2.99472,-4.891035 l -1.40736,-1.098393 c -3.35895,-2.629055 -4.51969,-4.769148 -4.51969,-7.245138 0,-3.36179 2.81045,-5.776836 7.05805,-5.776836 1.98561,0 3.27108,0.306134 4.06618,0.520142 0.27352,0.06095 0.42801,0.151649 0.42801,0.365659 0,0.398256 -0.12472,1.284056 -0.12472,3.667921 0,0.674627 -0.0894,0.918399 -0.33306,0.918399 -0.21401,0 -0.30472,-0.184246 -0.30472,-0.551322 0,-0.274953 -0.15307,-1.223114 -0.79792,-2.018208 -0.4592,-0.579667 -1.34501,-1.498065 -3.33346,-1.498065 -2.26339,0 -3.63673,1.315235 -3.63673,3.14778 0,1.405941 0.70581,2.474572 3.24132,4.402073 l 0.85603,0.642028 c 3.66934,2.841648 5.01151,4.891035 5.01151,7.793627 0,1.774434 -0.67321,3.881931 -2.87424,5.319054 -1.52499,0.97509 -3.23565,1.25429 -4.85986,1.25429 -1.77301,-10e-4 -3.15062,-0.21685 -4.4616,-0.79509"
     id="path15"
     style="fill:#000d74;stroke:#000d74;stroke-width:3.11804;stroke-dasharray:none;stroke-opacity:1" />
  <path
     d="m 443.46631,27.746554 c 0,-4.645845 0,-5.503301 -0.0623,-6.479807 -0.061,-1.03745 -0.36565,-1.559008 -1.03745,-1.712075 -0.33447,-0.0907 -0.73414,-0.121886 -1.09838,-0.121886 -0.30614,0 -0.48896,-0.06095 -0.48896,-0.306132 0,-0.182829 0.24376,-0.243773 0.73414,-0.243773 1.16076,0 3.08826,0.08929 3.97264,0.08929 0.76391,0 2.56952,-0.08929 3.7317,-0.08929 0.39542,0 0.64061,0.06095 0.64061,0.243773 0,0.245188 -0.18425,0.306132 -0.49038,0.306132 -0.30471,0 -0.5499,0.02977 -0.91557,0.0907 -0.82627,0.15165 -1.07145,0.67321 -1.13382,1.741839 -0.0609,0.975089 -0.0609,1.83396 -0.0609,6.479807 v 5.379997 c 0,2.963534 0,5.379997 0.12331,6.693813 0.0894,0.824855 0.30612,1.376185 1.22027,1.499495 0.42944,0.061 1.10122,0.12188 1.56184,0.12188 0.33306,0 0.48897,0.0893 0.48897,0.24519 0,0.21259 -0.24378,0.30613 -0.58109,0.30613 -2.01821,0 -3.94286,-0.0921 -4.76915,-0.0921 -0.70013,0 -2.62763,0.0921 -3.84933,0.0921 -0.39826,0 -0.61226,-0.0921 -0.61226,-0.30613 0,-0.15448 0.12188,-0.24519 0.49038,-0.24519 0.45777,0 0.82344,-0.061 1.09839,-0.12188 0.61226,-0.12331 0.79509,-0.64345 0.8858,-1.529254 0.15165,-1.28264 0.15165,-3.699103 0.15165,-6.662638 z"
     id="path16"
     style="fill:#000d74;stroke:#000d74;stroke-width:3.11804;stroke-dasharray:none;stroke-opacity:1" />
  <path
     d="m 464.34287,20.593538 -4.55373,0.121887 c -1.77302,0.06094 -2.50858,0.214009 -2.96495,0.887217 -0.30754,0.457782 -0.4592,0.824858 -0.51873,1.06863 -0.0623,0.245189 -0.15448,0.368494 -0.33731,0.368494 -0.21259,0 -0.27353,-0.153067 -0.27353,-0.490381 0,-0.488961 0.57966,-3.271083 0.64061,-3.513437 0.0922,-0.396839 0.18425,-0.581086 0.36848,-0.581086 0.24236,0 0.54992,0.306133 1.31525,0.367076 0.88579,0.09212 2.04655,0.153067 3.05566,0.153067 h 12.10356 c 1.95585,0 2.68859,-0.306133 2.93378,-0.306133 0.214,0 0.24377,0.184246 0.24377,0.642027 0,0.640612 -0.0894,2.749525 -0.0894,3.546037 -0.0312,0.304715 -0.0936,0.488962 -0.27495,0.488962 -0.24377,0 -0.30614,-0.153067 -0.33732,-0.612265 l -0.0297,-0.335897 c -0.0624,-0.795094 -0.88579,-1.649713 -3.6084,-1.710657 l -3.84933,-0.09212 v 12.531595 c 0,2.811885 0,5.228349 0.14739,6.542167 0.0922,0.856036 0.27637,1.526406 1.19336,1.649716 0.43227,0.061 1.09982,0.12331 1.56185,0.12331 0.33447,0 0.49037,0.0907 0.49037,0.24376 0,0.21402 -0.24519,0.30756 -0.58109,0.30756 -2.01821,0 -3.94286,-0.0922 -4.80032,-0.0922 -0.70297,0 -2.62764,0.0922 -3.85075,0.0922 -0.39684,0 -0.61368,-0.0922 -0.61368,-0.30756 0,-0.15165 0.12472,-0.24376 0.49179,-0.24376 0.45636,0 0.82486,-0.0623 1.09698,-0.12331 0.61368,-0.12331 0.79651,-0.79368 0.8858,-1.679478 0.15306,-1.284056 0.15306,-3.70052 0.15306,-6.513821 v -12.5316 z"
     id="path17"
     style="fill:#000d74;stroke:#000d74;stroke-width:3.11804;stroke-dasharray:none;stroke-opacity:1" />
  <path
     d="m 489.68384,34.071878 c 0,-1.651133 -0.30614,-2.321506 -0.70298,-3.208724 -0.214,-0.491797 -4.30994,-7.213958 -5.37858,-8.80273 -0.76391,-1.132408 -1.52924,-1.896321 -2.11032,-2.232217 -0.39542,-0.214008 -0.91557,-0.396838 -1.28265,-0.396838 -0.24519,0 -0.45778,-0.06094 -0.45778,-0.273535 0,-0.185665 0.21259,-0.274953 0.57967,-0.274953 0.55132,0 2.84307,0.08929 3.85217,0.08929 0.64203,0 1.89491,-0.08929 3.27392,-0.08929 0.30329,0 0.4592,0.08929 0.4592,0.274953 0,0.182829 -0.21685,0.212592 -0.67747,0.334478 -0.27494,0.06094 -0.42801,0.304716 -0.42801,0.551322 0,0.245189 0.15023,0.610848 0.36566,1.037449 0.43085,0.918398 4.7082,8.284006 5.19858,9.140043 0.30614,-0.735569 4.15548,-7.459148 4.58349,-8.405892 0.30613,-0.673208 0.42802,-1.193349 0.42802,-1.590189 0,-0.306132 -0.12189,-0.640611 -0.64061,-0.763913 -0.27354,-0.06094 -0.55133,-0.121886 -0.55133,-0.304715 0,-0.21401 0.15166,-0.274953 0.52014,-0.274953 1.00769,0 1.98561,0.08929 2.86857,0.08929 0.67747,0 2.69143,-0.08929 3.27535,-0.08929 0.33447,0 0.54991,0.06094 0.54991,0.243772 0,0.21401 -0.24378,0.306133 -0.57968,0.306133 -0.30755,0 -0.88721,0.121887 -1.345,0.365659 -0.64061,0.307549 -0.9765,0.674624 -1.64971,1.500899 -1.00911,1.220279 -5.28788,8.404474 -5.83637,9.718293 -0.45919,1.09981 -0.45919,2.046554 -0.45919,3.055658 v 2.508586 c 0,0.488961 0,1.773018 0.0907,3.055657 0.0595,0.885796 0.33447,1.559006 1.25429,1.680896 0.42802,0.0623 1.0984,0.1233 1.52641,0.1233 0.3359,0 0.49038,0.0893 0.49038,0.24377 0,0.21401 -0.24378,0.30756 -0.64062,0.30756 -1.92465,0 -3.85216,-0.0921 -4.67702,-0.0921 -0.76391,0 -2.69142,0.0921 -3.82241,0.0921 -0.42659,0 -0.67178,-0.0638 -0.67178,-0.30756 0,-0.15306 0.15022,-0.24377 0.48896,-0.24377 0.42801,0 0.79651,-0.061 1.07005,-0.1233 0.61367,-0.12189 0.88721,-0.7951 0.94673,-1.680896 0.0922,-1.282639 0.0922,-2.568113 0.0922,-3.055657 z"
     id="path18"
     style="fill:#000d74;stroke:#000d74;stroke-width:3.11804;stroke-dasharray:none;stroke-opacity:1" />
  <path
     d="m 66.282611,65.655977 c 0,-3.05282 0,-3.61548 -0.04109,-4.25751 -0.0411,-0.68455 -0.240938,-1.0247 -0.681712,-1.1239 -0.221096,-0.0609 -0.481877,-0.0822 -0.722813,-0.0822 -0.199836,0 -0.320306,-0.0382 -0.320306,-0.20126 0,-0.11905 0.160153,-0.16015 0.480459,-0.16015 0.763914,0 2.028127,0.0609 2.61063,0.0609 0.501717,0 1.686563,-0.0609 2.449061,-0.0609 0.260779,0 0.420932,0.0411 0.420932,0.16015 0,0.16016 -0.120469,0.20126 -0.320305,0.20126 -0.201254,0 -0.361406,0.0213 -0.602345,0.0609 -0.542818,0.0978 -0.702971,0.44361 -0.744072,1.14517 -0.03968,0.64204 -0.03968,1.20469 -0.03968,4.25751 v 3.53187 c 0,1.94591 0,3.53185 0.08078,4.39641 0.05953,0.54281 0.199837,0.90421 0.802182,0.98215 0.282038,0.0398 0.722812,0.0808 1.023276,0.0808 0.221096,0 0.321723,0.0609 0.321723,0.16299 0,0.13889 -0.160153,0.19983 -0.381248,0.19983 -1.323741,0 -2.589371,-0.0609 -3.130773,-0.0609 -0.462034,0 -1.726248,0.0609 -2.529846,0.0609 -0.26078,0 -0.401091,-0.0609 -0.401091,-0.19983 0,-0.10204 0.08078,-0.16299 0.321723,-0.16299 0.300463,0 0.541401,-0.0383 0.721396,-0.0808 0.40109,-0.0808 0.521559,-0.42091 0.582501,-1.002 0.100622,-0.84471 0.100622,-2.43065 0.100622,-4.37656 z"
     id="path19"
     style="fill:#000d74;stroke:#000d74;stroke-width:3.11804;stroke-dasharray:none;stroke-opacity:1" />
  <path
     d="m 77.503221,72.276087 c 0.03968,1.56468 0.301881,2.08766 0.702971,2.22797 0.340148,0.11905 0.722813,0.14173 1.043118,0.14173 0.21968,0 0.341565,0.0382 0.341565,0.16014 0,0.15875 -0.181411,0.20267 -0.462034,0.20267 -1.303897,0 -2.107495,-0.0623 -2.488743,-0.0623 -0.181414,0 -1.123904,0.0623 -2.16844,0.0623 -0.262196,0 -0.440774,-0.0227 -0.440774,-0.20267 0,-0.12188 0.119051,-0.16014 0.320305,-0.16014 0.260779,0 0.623603,-0.0227 0.904225,-0.10066 0.521559,-0.16015 0.602345,-0.74265 0.622186,-2.49017 l 0.179996,-11.88106 c 0,-0.4025 0.06094,-0.68313 0.260779,-0.68313 0.221095,0 0.402507,0.26079 0.742655,0.62218 0.240937,0.26079 3.292342,3.53187 6.223278,6.44439 1.364842,1.36342 4.074682,4.25467 4.416246,4.57639 h 0.09922 l -0.199838,-9.01249 c -0.01985,-1.22311 -0.201253,-1.60577 -0.683128,-1.8042 -0.300464,-0.12188 -0.782339,-0.12188 -1.062961,-0.12188 -0.240938,0 -0.321724,-0.058 -0.321724,-0.17858 0,-0.16157 0.221097,-0.18141 0.522978,-0.18141 1.043118,0 2.006869,0.0609 2.427801,0.0609 0.221096,0 0.983593,-0.0609 1.967185,-0.0609 0.260781,0 0.462034,0.0199 0.462034,0.18141 0,0.12047 -0.12047,0.17858 -0.361406,0.17858 -0.201254,0 -0.361407,0 -0.602345,0.0609 -0.561243,0.16157 -0.722812,0.5825 -0.742655,1.70782 l -0.221096,12.66482 c 0,0.44361 -0.07937,0.62218 -0.260779,0.62218 -0.221095,0 -0.460616,-0.21967 -0.681712,-0.44359 -1.265632,-1.20469 -3.835161,-3.83375 -5.922816,-5.90156 -2.186864,-2.16561 -4.414829,-4.67704 -4.777653,-5.05686 h -0.05953 z"
     id="path20"
     style="fill:#000d74;stroke:#000d74;stroke-width:3.11804;stroke-dasharray:none;stroke-opacity:1" />
  <path
     d="m 106.12662,60.956277 -2.99046,0.0822 c -1.16359,0.0383 -1.64547,0.14173 -1.94735,0.58249 -0.19983,0.30047 -0.30188,0.54141 -0.34156,0.70014 -0.0397,0.15873 -0.10062,0.24236 -0.21968,0.24236 -0.14173,0 -0.18283,-0.0992 -0.18283,-0.32172 0,-0.32315 0.38267,-2.15144 0.42235,-2.3116 0.0609,-0.26077 0.12189,-0.37983 0.24094,-0.37983 0.16157,0 0.36141,0.19984 0.86454,0.23953 0.58109,0.0595 1.34358,0.0992 2.00687,0.0992 h 7.94953 c 0.64202,0 1.0828,-0.0609 1.38468,-0.0992 0.30046,-0.0609 0.46061,-0.0978 0.5414,-0.0978 0.14031,0 0.16015,0.11905 0.16015,0.41809 0,0.42377 -0.0595,1.80845 -0.0595,2.33285 -0.0213,0.20125 -0.0595,0.32314 -0.18141,0.32314 -0.16015,0 -0.19984,-0.10067 -0.21968,-0.40393 l -0.0213,-0.21825 c -0.0397,-0.52015 -0.58108,-1.08564 -2.36827,-1.12532 l -2.52985,-0.0596 v 8.23157 c 0,1.8453 0,3.43123 0.10062,4.29294 0.0609,0.56266 0.18141,1.00484 0.78376,1.08706 0.28062,0.0397 0.72281,0.0808 1.02328,0.0808 0.22109,0 0.32172,0.0595 0.32172,0.16014 0,0.14032 -0.16157,0.20127 -0.38125,0.20127 -1.32516,0 -2.58937,-0.0609 -3.15203,-0.0609 -0.46204,0 -1.72625,0.0609 -2.52985,0.0609 -0.26078,0 -0.40109,-0.0609 -0.40109,-0.20127 0,-0.10066 0.0808,-0.16014 0.32172,-0.16014 0.30047,0 0.5414,-0.0383 0.72282,-0.0808 0.40109,-0.0822 0.52156,-0.52298 0.58108,-1.10407 0.10062,-0.8447 0.10062,-2.43063 0.10062,-4.27593 z"
     id="path21"
     style="fill:#000d74;stroke:#000d74;stroke-width:3.11804;stroke-dasharray:none;stroke-opacity:1" />
  <path
     d="m 129.02846,66.214377 c 0.0609,0 0.12047,-0.0382 0.12047,-0.14172 v -0.42094 c 0,-3.05282 0,-3.61406 -0.0397,-4.25468 -0.0397,-0.68312 -0.20126,-1.002 -0.86313,-1.14657 -0.16157,-0.0398 -0.50171,-0.0609 -0.78234,-0.0609 -0.2211,0 -0.34157,-0.0383 -0.34157,-0.17999 0,-0.14173 0.14032,-0.1814 0.42094,-0.1814 1.08422,0 2.34844,0.0609 2.89125,0.0609 0.48188,0 1.7461,-0.0609 2.52843,-0.0609 0.28062,0 0.42093,0.0398 0.42093,0.1814 0,0.14174 -0.12046,0.17999 -0.35998,0.17999 -0.16016,0 -0.34157,0.0213 -0.5825,0.0609 -0.54141,0.0992 -0.70298,0.44362 -0.74266,1.14657 -0.0411,0.64062 -0.0411,1.20186 -0.0411,4.25468 v 3.53329 c 0,1.84529 0,3.43123 0.10067,4.29294 0.061,0.56267 0.18142,1.00486 0.78377,1.08706 0.28061,0.0398 0.72139,0.0808 1.02327,0.0808 0.22109,0 0.32172,0.0581 0.32172,0.16017 0,0.1403 -0.16157,0.20124 -0.40109,0.20124 -1.30531,0 -2.56952,-0.0609 -3.13219,-0.0609 -0.46203,0 -1.72624,0.0609 -2.50858,0.0609 -0.28204,0 -0.42236,-0.0609 -0.42236,-0.20124 0,-0.10204 0.0808,-0.16017 0.32173,-0.16017 0.30047,0 0.5414,-0.0383 0.72281,-0.0808 0.40109,-0.0822 0.50171,-0.52299 0.58109,-1.10407 0.10068,-0.8447 0.10068,-2.43064 0.10068,-4.27593 v -1.76735 c 0,-0.0822 -0.0596,-0.12048 -0.12048,-0.12048 h -7.66749 c -0.0596,0 -0.12046,0.0213 -0.12046,0.12048 v 1.76735 c 0,1.84529 0,3.43123 0.10067,4.29294 0.061,0.56267 0.17999,1.00486 0.78234,1.08706 0.28204,0.0398 0.72281,0.0808 1.02327,0.0808 0.2211,0 0.32173,0.0581 0.32173,0.16017 0,0.1403 -0.16015,0.20124 -0.40109,0.20124 -1.30531,0 -2.56953,-0.0609 -3.13219,-0.0609 -0.46062,0 -1.72625,0.0609 -2.52843,0.0609 -0.26078,0 -0.40109,-0.0609 -0.40109,-0.20124 0,-0.10204 0.0793,-0.16017 0.32031,-0.16017 0.30187,0 0.54139,-0.0383 0.72281,-0.0808 0.40109,-0.0822 0.50172,-0.52299 0.5825,-1.10407 0.10067,-0.8447 0.10067,-2.43064 0.10067,-4.27593 v -3.53329 c 0,-3.05282 0,-3.61406 -0.0411,-4.25468 -0.0397,-0.68312 -0.20126,-1.002 -0.86312,-1.14657 -0.16016,-0.0398 -0.50172,-0.0609 -0.78234,-0.0609 -0.2211,0 -0.34156,-0.0383 -0.34156,-0.17999 0,-0.14173 0.14172,-0.1814 0.42235,-0.1814 1.0828,0 2.34842,0.0609 2.88983,0.0609 0.48188,0 1.74609,-0.0609 2.52984,-0.0609 0.28063,0 0.42094,0.0398 0.42094,0.1814 0,0.14174 -0.12047,0.17999 -0.36141,0.17999 -0.16015,0 -0.34014,0.0213 -0.5825,0.0609 -0.54141,0.0992 -0.70297,0.44362 -0.74124,1.14657 -0.0411,0.64062 -0.0411,1.20186 -0.0411,4.25468 v 0.42094 c 0,0.10066 0.061,0.14172 0.12046,0.14172 z"
     id="path22"
     style="fill:#000d74;stroke:#000d74;stroke-width:3.11804;stroke-dasharray:none;stroke-opacity:1" />
  <path
     d="m 139.26123,65.655977 c 0,-3.05282 0,-3.61548 -0.0411,-4.25751 -0.0397,-0.68171 -0.19984,-1.00203 -0.86313,-1.14517 -0.16014,-0.0398 -0.5003,-0.0609 -0.78234,-0.0609 -0.21967,0 -0.34015,-0.0369 -0.34015,-0.18 0,-0.14031 0.14032,-0.18141 0.44079,-0.18141 1.06295,0 2.32859,0.0609 2.89124,0.0609 0.64203,0 4.63734,0 5.01718,-0.0199 0.38124,-0.0411 0.70297,-0.0822 0.86312,-0.12189 0.10067,-0.0199 0.22109,-0.0793 0.32172,-0.0793 0.0992,0 0.12047,0.0793 0.12047,0.17857 0,0.14172 -0.10067,0.38267 -0.16157,1.30532 -0.0199,0.20125 -0.0596,1.08705 -0.0992,1.32515 -0.0199,0.10204 -0.061,0.22394 -0.20124,0.22394 -0.14031,0 -0.18001,-0.10489 -0.18001,-0.28488 0,-0.13889 -0.0199,-0.47905 -0.12046,-0.71997 -0.14032,-0.36284 -0.34157,-0.60376 -1.345,-0.72424 -0.34156,-0.0398 -2.44905,-0.0822 -2.85015,-0.0822 -0.10068,0 -0.14031,0.0609 -0.14031,0.20267 v 5.07953 c 0,0.14172 0.0185,0.21826 0.14031,0.21826 0.44219,0 2.74952,0 3.21155,-0.0383 0.48188,-0.0382 0.78234,-0.0992 0.96234,-0.30189 0.14172,-0.15731 0.2211,-0.26219 0.32173,-0.26219 0.0808,0 0.1403,0.0398 0.1403,0.16157 0,0.11905 -0.0992,0.44078 -0.16015,1.46406 -0.0411,0.40109 -0.0808,1.20468 -0.0808,1.34216 0,0.16015 0,0.38267 -0.18,0.38267 -0.14031,0 -0.18142,-0.0793 -0.18142,-0.18 -0.0199,-0.20267 -0.0199,-0.46203 -0.0808,-0.72423 -0.0992,-0.39967 -0.37983,-0.70155 -1.12248,-0.78235 -0.38409,-0.0383 -2.3697,-0.0609 -2.85158,-0.0609 -0.10067,0 -0.11905,0.0836 -0.11905,0.20267 v 1.58594 c 0,0.68029 -0.0199,2.52842 0,3.10951 0.0397,1.38751 0.36141,1.68373 2.40796,1.68373 0.52299,0 1.36484,0 1.8864,-0.24094 0.52298,-0.2381 0.76251,-0.66187 0.90423,-1.4853 0.0382,-0.21969 0.0794,-0.30046 0.22109,-0.30046 0.16016,0 0.16016,0.15872 0.16016,0.36139 0,0.46062 -0.16016,1.82688 -0.26078,2.22655 -0.14173,0.52156 -0.32173,0.52156 -1.08422,0.52156 -3.03156,0 -4.37657,-0.12047 -5.55999,-0.12047 -0.46203,0 -1.72767,0.0609 -2.52985,0.0609 -0.26077,0 -0.40109,-0.0609 -0.40109,-0.19984 0,-0.10204 0.0794,-0.16297 0.32172,-0.16297 0.30047,0 0.5414,-0.0382 0.72282,-0.0808 0.40109,-0.0808 0.5003,-0.52014 0.58108,-1.10405 0.10067,-0.84188 0.10067,-2.42782 0.10067,-4.27453 z"
     id="path23"
     style="fill:#000d74;stroke:#000d74;stroke-width:3.11804;stroke-dasharray:none;stroke-opacity:1" />
  <path
     d="m 160.322,73.099537 c -1.96718,-1.72767 -2.49015,-3.97406 -2.49015,-5.9214 0,-1.36343 0.42234,-3.73312 2.34842,-5.50047 1.44564,-1.32658 3.3533,-2.12734 6.34376,-2.12734 1.24437,0 1.98844,0.0793 2.9111,0.20126 0.76248,0.0992 1.40593,0.27921 2.00685,0.34014 0.2211,0.0199 0.30189,0.12048 0.30189,0.24377 0,0.15875 -0.0609,0.39968 -0.10067,1.10122 -0.0397,0.6633 -0.0199,1.76736 -0.0609,2.16846 -0.0199,0.30188 -0.0595,0.4606 -0.24095,0.4606 -0.16015,0 -0.19984,-0.15872 -0.19984,-0.44361 -0.0199,-0.62218 -0.28061,-1.32656 -0.78375,-1.84812 -0.66186,-0.70014 -2.22796,-1.24438 -4.07468,-1.24438 -1.74609,0 -2.88983,0.44362 -3.77422,1.24438 -1.46403,1.34358 -1.84529,3.25265 -1.84529,5.20142 0,4.77623 3.63249,7.1445 6.32249,7.1445 1.78718,0 2.86998,-0.20407 3.67358,-1.12389 0.34157,-0.38409 0.60234,-0.96518 0.68171,-1.32799 0.0609,-0.32031 0.10066,-0.4011 0.2622,-0.4011 0.14032,0 0.18,0.14315 0.18,0.30189 0,0.24092 -0.24094,1.98702 -0.4422,2.67298 -0.0992,0.33873 -0.17999,0.44219 -0.52013,0.57968 -0.8036,0.32172 -2.33002,0.46203 -3.61406,0.46203 -2.75094,0.004 -5.05969,-0.59526 -6.88516,-2.18403"
     id="path24"
     style="fill:#000d74;stroke:#000d74;stroke-width:3.11804;stroke-dasharray:none;stroke-opacity:1" />
  <path
     d="m 177.1026,65.655977 c 0,-3.05282 0,-3.61548 -0.0411,-4.25751 -0.0382,-0.68171 -0.24095,-1.0247 -0.68172,-1.1239 -0.22109,-0.0609 -0.48188,-0.0822 -0.72423,-0.0822 -0.19984,0 -0.3203,-0.0369 -0.3203,-0.20126 0,-0.11905 0.16156,-0.16015 0.48187,-0.16015 0.7625,0 2.02671,0.0609 2.61063,0.0609 0.5003,0 1.68515,-0.0609 2.44764,-0.0609 0.2622,0 0.42236,0.0411 0.42236,0.16015 0,0.16016 -0.11906,0.20126 -0.32172,0.20126 -0.19984,0 -0.36142,0.0213 -0.60235,0.0609 -0.54141,0.0978 -0.70155,0.44361 -0.74265,1.14517 -0.0398,0.64204 -0.0398,1.20469 -0.0398,4.25751 v 3.53187 c 0,1.94591 0,3.53185 0.0808,4.39641 0.0595,0.54281 0.19983,0.90421 0.80217,0.98215 0.27921,0.0398 0.72282,0.0808 1.02329,0.0808 0.22108,0 0.32173,0.0609 0.32173,0.16299 0,0.13889 -0.15875,0.19983 -0.38126,0.19983 -1.32515,0 -2.58937,-0.0609 -3.13219,-0.0609 -0.46203,0 -1.72625,0.0609 -2.52843,0.0609 -0.26078,0 -0.40252,-0.0609 -0.40252,-0.19983 0,-0.10204 0.0808,-0.16299 0.32174,-0.16299 0.30047,0 0.54282,-0.0383 0.72281,-0.0808 0.40109,-0.0808 0.52156,-0.42091 0.58109,-1.002 0.10204,-0.84471 0.10204,-2.43065 0.10204,-4.37656 z"
     id="path25"
     style="fill:#000d74;stroke:#000d74;stroke-width:3.11804;stroke-dasharray:none;stroke-opacity:1" />
  <path
     d="m 189.8723,60.956277 -2.99188,0.0822 c -1.16218,0.0383 -1.64404,0.14173 -1.94593,0.58249 -0.20124,0.30047 -0.30188,0.54141 -0.34014,0.70014 -0.0398,0.15873 -0.10066,0.24236 -0.2211,0.24236 -0.14172,0 -0.17999,-0.0992 -0.17999,-0.32172 0,-0.32315 0.37983,-2.15144 0.42093,-2.3116 0.0609,-0.26077 0.12047,-0.37983 0.24095,-0.37983 0.16156,0 0.36139,0.19984 0.8631,0.23953 0.58109,0.0595 1.3436,0.0992 2.00831,0.0992 h 7.94668 c 0.64203,0 1.08565,-0.0609 1.3861,-0.0992 0.30188,-0.0609 0.46204,-0.0978 0.54283,-0.0978 0.1403,0 0.16014,0.11905 0.16014,0.41809 0,0.42377 -0.0609,1.80845 -0.0609,2.33285 -0.0213,0.20125 -0.0609,0.32314 -0.17999,0.32314 -0.16016,0 -0.20268,-0.10067 -0.2211,-0.40393 l -0.0213,-0.21825 c -0.0383,-0.52015 -0.58109,-1.08564 -2.36828,-1.12532 l -2.52985,-0.0596 v 8.23157 c 0,1.8453 0,3.43123 0.10067,4.29294 0.0609,0.56266 0.18141,1.00484 0.78375,1.08706 0.28063,0.0397 0.72282,0.0808 1.02469,0.0808 0.22109,0 0.32031,0.0595 0.32031,0.16014 0,0.14032 -0.16015,0.20127 -0.38125,0.20127 -1.32516,0 -2.58938,-0.0609 -3.15203,-0.0609 -0.46062,0 -1.72625,0.0609 -2.52843,0.0609 -0.2622,0 -0.40108,-0.0609 -0.40108,-0.20127 0,-0.10066 0.0793,-0.16014 0.32172,-0.16014 0.30046,0 0.5414,-0.0383 0.7214,-0.0808 0.40249,-0.0822 0.52156,-0.52298 0.58249,-1.10407 0.10067,-0.8447 0.10067,-2.43063 0.10067,-4.27593 z"
     id="path26"
     style="fill:#000d74;stroke:#000d74;stroke-width:3.11804;stroke-dasharray:none;stroke-opacity:1" />
  <path
     d="m 204.82461,69.808597 c 0,-1.0842 -0.20266,-1.52499 -0.46203,-2.1089 -0.1403,-0.32032 -2.83031,-4.73656 -3.53187,-5.77826 -0.50171,-0.74407 -1.00343,-1.24437 -1.38609,-1.46405 -0.2622,-0.14456 -0.60234,-0.26503 -0.84186,-0.26503 -0.16158,0 -0.3033,-0.0368 -0.3033,-0.17858 0,-0.12047 0.14172,-0.18141 0.38266,-0.18141 0.36141,0 1.86515,0.0609 2.52985,0.0609 0.42093,0 1.24437,-0.0609 2.14718,-0.0609 0.20125,0 0.30046,0.0609 0.30046,0.18141 0,0.12047 -0.14031,0.14173 -0.44078,0.21827 -0.1814,0.0411 -0.28204,0.20125 -0.28204,0.36282 0,0.16015 0.10067,0.39826 0.24236,0.68313 0.28062,0.60093 3.09108,5.43669 3.4114,5.99793 0.20125,-0.48188 2.72968,-4.89812 3.01031,-5.52031 0.20124,-0.44361 0.28204,-0.78376 0.28204,-1.04453 0,-0.19842 -0.0822,-0.42235 -0.42237,-0.50172 -0.18139,-0.0398 -0.3614,-0.0808 -0.3614,-0.20126 0,-0.14172 0.10066,-0.18141 0.34015,-0.18141 0.66329,0 1.30532,0.0609 1.88781,0.0609 0.44078,0 1.76593,-0.0609 2.14719,-0.0609 0.2211,0 0.3614,0.0398 0.3614,0.15874 0,0.14314 -0.15873,0.20125 -0.38125,0.20125 -0.19983,0 -0.58108,0.0822 -0.88437,0.24094 -0.42094,0.20409 -0.64061,0.44361 -1.0828,0.98359 -0.66189,0.80219 -3.47234,5.52172 -3.83376,6.38343 -0.30187,0.72283 -0.30187,1.34501 -0.30187,2.00829 v 1.64262 c 0,0.32456 0,1.16501 0.0609,2.00971 0.0382,0.58109 0.21968,1.0247 0.82344,1.10265 0.27921,0.0398 0.7214,0.0793 1.00344,0.0793 0.21968,0 0.32031,0.0609 0.32031,0.16298 0,0.14032 -0.16016,0.20126 -0.42094,0.20126 -1.26421,0 -2.52984,-0.0609 -3.07125,-0.0609 -0.50171,0 -1.76733,0.0609 -2.50999,0.0609 -0.27921,0 -0.44219,-0.0398 -0.44219,-0.20126 0,-0.10203 0.10066,-0.16298 0.32029,-0.16298 0.28204,0 0.52299,-0.0368 0.70298,-0.0793 0.4011,-0.0808 0.5825,-0.52156 0.6236,-1.10265 0.0595,-0.8447 0.0595,-1.68515 0.0595,-2.00971 v -1.63979 h 0.002 z"
     id="path27"
     style="fill:#000d74;stroke:#000d74;stroke-width:3.11804;stroke-dasharray:none;stroke-opacity:1" />
  <path
     d="m 221.90285,67.421897 c 0,-3.43264 2.26764,-7.87015 8.28966,-7.87015 4.99876,0 8.11111,2.91251 8.11111,7.50734 0,4.59766 -3.21157,8.23015 -8.30952,8.23015 -5.76409,-0.001 -8.09125,-4.31562 -8.09125,-7.86734 m 13.59029,0.37842 c 0,-4.49562 -2.58936,-7.28623 -5.88313,-7.28623 -2.30733,0 -4.93779,1.28263 -4.93779,6.2828 0,4.17531 2.31016,7.48608 6.16516,7.48608 1.40311,0 4.65576,-0.67888 4.65576,-6.48265"
     id="path28"
     style="fill:#000d74;stroke:#000d74;stroke-width:3.11804;stroke-dasharray:none;stroke-opacity:1" />
  <path
     d="m 246.0533,69.187837 c 0,1.92608 0,3.43266 0.10067,4.27452 0.0581,0.58392 0.17857,1.02753 0.78376,1.10405 0.2792,0.0411 0.72139,0.0808 1.0006,0.0808 0.26219,0 0.34297,0.0609 0.34297,0.16299 0,0.13889 -0.1403,0.20126 -0.44219,0.20126 -1.26562,0 -2.52842,-0.0624 -3.0514,-0.0624 -0.52156,0 -1.78719,0.0624 -2.54969,0.0624 -0.28062,0 -0.42093,-0.0411 -0.42093,-0.20126 0,-0.10204 0.0808,-0.16299 0.30188,-0.16299 0.30047,0 0.53999,-0.0369 0.72139,-0.0808 0.40251,-0.0793 0.50173,-0.52013 0.58393,-1.10405 0.0992,-0.84186 0.0992,-2.34559 0.0992,-4.27452 v -3.53186 c 0,-3.05282 0,-3.61548 -0.0397,-4.25751 -0.0398,-0.68171 -0.20267,-1.00203 -0.86313,-1.14517 -0.16015,-0.0398 -0.50171,-0.0595 -0.78235,-0.0595 -0.20124,0 -0.34156,-0.0382 -0.34156,-0.16015 0,-0.16015 0.16016,-0.20125 0.46062,-0.20125 1.04311,0 2.30875,0.0609 2.89125,0.0609 0.76108,0 4.83718,0 5.2978,-0.0212 0.38266,-0.0227 0.62077,-0.0227 0.82344,-0.0822 0.12047,-0.0398 0.22109,-0.12047 0.32314,-0.12047 0.0808,0 0.1403,0.0808 0.1403,0.18 0,0.14172 -0.10066,0.38267 -0.16156,0.9028 -0.0184,0.2055 -0.0581,1.38752 -0.0992,1.62704 -0.0199,0.15732 -0.0609,0.28062 -0.20125,0.28062 -0.14173,0 -0.18141,-0.10066 -0.20268,-0.32314 0,-0.16015 0,-0.48187 -0.11905,-0.76108 -0.1403,-0.28203 -0.56124,-0.58392 -1.32657,-0.60518 l -3.08968,-0.0609 c -0.12046,0 -0.18139,0.0609 -0.18139,0.28347 v 5.01716 c 0,0.12047 0.0184,0.18 0.14171,0.18 l 2.56812,-0.0212 c 0.34157,0 0.62218,0 0.90564,-0.0213 0.38126,-0.0199 0.66187,-0.0978 0.8617,-0.36142 0.10067,-0.12046 0.14174,-0.20124 0.26079,-0.20124 0.0808,0 0.12188,0.0609 0.12188,0.1814 0,0.12048 -0.10203,0.62219 -0.16016,1.24437 -0.0411,0.39968 -0.0808,1.32516 -0.0808,1.46264 0,0.18424 0,0.38408 -0.20268,0.38408 -0.12047,0 -0.16016,-0.14314 -0.16016,-0.27778 0,-0.14314 -0.0383,-0.38409 -0.11904,-0.62218 -0.10066,-0.28063 -0.40109,-0.64204 -1.0247,-0.72566 -0.50171,-0.0581 -2.62905,-0.0581 -2.97062,-0.0581 -0.10067,0 -0.14172,0.0383 -0.14172,0.18 z"
     id="path29"
     style="fill:#000d74;stroke:#000d74;stroke-width:3.11804;stroke-dasharray:none;stroke-opacity:1" />
  <path
     d="m 265.20077,72.276087 c 0.0411,1.56468 0.30471,2.08766 0.70297,2.22797 0.34156,0.11905 0.72282,0.14173 1.04311,0.14173 0.22252,0 0.34015,0.0382 0.34015,0.16014 0,0.15875 -0.17857,0.20267 -0.4592,0.20267 -1.30531,0 -2.1089,-0.0623 -2.49159,-0.0623 -0.17998,0 -1.12389,0.0623 -2.1656,0.0623 -0.26219,0 -0.44359,-0.0227 -0.44359,-0.20267 0,-0.12188 0.1233,-0.16014 0.32313,-0.16014 0.2622,0 0.6236,-0.0227 0.90423,-0.10066 0.52013,-0.16015 0.60376,-0.74265 0.62218,-2.49017 l 0.17999,-11.88106 c 0,-0.4025 0.0595,-0.68313 0.26362,-0.68313 0.21826,0 0.4011,0.26079 0.74124,0.62218 0.23952,0.26079 3.29234,3.53187 6.22327,6.44439 1.36485,1.36342 4.07186,4.25467 4.41343,4.57639 h 0.0992 l -0.20125,-9.01249 c -0.0213,-1.22311 -0.19984,-1.60577 -0.67888,-1.8042 -0.30329,-0.12188 -0.78516,-0.12188 -1.06437,-0.12188 -0.24235,0 -0.32172,-0.058 -0.32172,-0.17858 0,-0.16157 0.21967,-0.18141 0.52013,-0.18141 1.04312,0 2.00688,0.0609 2.4278,0.0609 0.21969,0 0.9836,-0.0609 1.97003,-0.0609 0.26079,0 0.46062,0.0199 0.46062,0.18141 0,0.12047 -0.11906,0.17858 -0.36283,0.17858 -0.20124,0 -0.36282,0 -0.60234,0.0609 -0.56125,0.16157 -0.7214,0.5825 -0.73983,1.70782 l -0.22109,12.66482 c 0,0.44361 -0.0808,0.62218 -0.26078,0.62218 -0.22109,0 -0.46203,-0.21967 -0.6817,-0.44359 -1.26422,-1.20469 -3.83376,-3.83375 -5.92283,-5.90156 -2.1897,-2.16561 -4.41483,-4.67704 -4.77624,-5.05686 h -0.0609 z"
     id="path30"
     style="fill:#000d74;stroke:#000d74;stroke-width:3.11804;stroke-dasharray:none;stroke-opacity:1" />
  <path
     d="m 284.10729,65.655977 c 0,-3.05282 0,-3.61548 -0.0411,-4.25751 -0.0383,-0.68171 -0.19984,-1.00203 -0.8603,-1.14517 -0.16014,-0.0398 -0.50171,-0.0609 -0.78375,-0.0609 -0.21825,0 -0.34014,-0.0369 -0.34014,-0.18 0,-0.14031 0.14173,-0.18141 0.44219,-0.18141 1.06438,0 2.33001,0.0609 2.88841,0.0609 0.64487,0 4.63876,0 5.02143,-0.0199 0.38124,-0.0411 0.70013,-0.0822 0.86029,-0.12189 0.10203,-0.0199 0.22251,-0.0793 0.32313,-0.0793 0.0978,0 0.12047,0.0793 0.12047,0.17857 0,0.14172 -0.0978,0.38267 -0.15872,1.30532 -0.0227,0.20125 -0.0595,1.08705 -0.10067,1.32515 -0.0213,0.10204 -0.0609,0.22394 -0.20126,0.22394 -0.14314,0 -0.18282,-0.10489 -0.18282,-0.28488 0,-0.13889 -0.0213,-0.47905 -0.11905,-0.71997 -0.14315,-0.36284 -0.34015,-0.60376 -1.34501,-0.72424 -0.33873,-0.0398 -2.44764,-0.0822 -2.85014,-0.0822 -0.0992,0 -0.14456,0.0609 -0.14456,0.20267 v 5.07953 c 0,0.14172 0.0241,0.21826 0.14456,0.21826 0.44077,0 2.74809,0 3.21438,-0.0383 0.47904,-0.0382 0.78093,-0.0992 0.96375,-0.30189 0.1389,-0.15731 0.21827,-0.26219 0.32172,-0.26219 0.0808,0 0.14174,0.0398 0.14174,0.16157 0,0.11905 -0.10204,0.44078 -0.16016,1.46406 -0.0397,0.40109 -0.0808,1.20468 -0.0808,1.34216 0,0.16015 0,0.38267 -0.17999,0.38267 -0.14457,0 -0.18282,-0.0793 -0.18282,-0.18 -0.0213,-0.20267 -0.0213,-0.46203 -0.0808,-0.72423 -0.0992,-0.39967 -0.38266,-0.70155 -1.12389,-0.78235 -0.38267,-0.0383 -2.36827,-0.0609 -2.85157,-0.0609 -0.0992,0 -0.12189,0.0836 -0.12189,0.20267 v 1.58594 c 0,0.68029 -0.0199,2.52842 0,3.10951 0.0411,1.38751 0.36283,1.68373 2.41079,1.68373 0.52015,0 1.36484,0 1.88499,-0.24094 0.52156,-0.2381 0.7625,-0.66187 0.9028,-1.4853 0.0398,-0.21969 0.0808,-0.30046 0.22394,-0.30046 0.15873,0 0.15873,0.15872 0.15873,0.36139 0,0.46062 -0.15873,1.82688 -0.26503,2.22655 -0.14031,0.52156 -0.31889,0.52156 -1.0828,0.52156 -3.03298,0 -4.37799,-0.12047 -5.56141,-0.12047 -0.45919,0 -1.72624,0.0609 -2.52701,0.0609 -0.26361,0 -0.4011,-0.0609 -0.4011,-0.19984 0,-0.10204 0.0808,-0.16297 0.32173,-0.16297 0.30046,0 0.54282,-0.0382 0.72282,-0.0808 0.39967,-0.0808 0.50171,-0.52014 0.57966,-1.10405 0.10066,-0.84188 0.10066,-2.42782 0.10066,-4.27453 v -3.52052 z"
     id="path31"
     style="fill:#000d74;stroke:#000d74;stroke-width:3.11804;stroke-dasharray:none;stroke-opacity:1" />
  <path
     d="m 296.04079,61.799557 c -0.24094,-0.74123 -0.45919,-1.22311 -0.74266,-1.42579 -0.21684,-0.14172 -0.62076,-0.18141 -0.80076,-0.18141 -0.20124,0 -0.32313,-0.0185 -0.32313,-0.17858 0,-0.14173 0.16156,-0.18141 0.4436,-0.18141 1.0417,0 2.1486,0.0609 2.33,0.0609 0.18001,0 1.06298,-0.0609 2.22656,-0.0609 0.27921,0 0.42235,0.0609 0.42235,0.18141 0,0.16015 -0.16015,0.17858 -0.36141,0.17858 -0.16015,0 -0.35999,0 -0.50172,0.0822 -0.17999,0.0808 -0.21967,0.2197 -0.21967,0.44361 0,0.26079 0.20125,0.94393 0.44219,1.84672 0.34298,1.32658 2.21096,7.40813 2.56952,8.53203 h 0.0581 l 3.89471,-10.45812 c 0.22108,-0.56124 0.34156,-0.7228 0.50312,-0.7228 0.21826,0 0.32173,0.30188 0.57968,0.9425 l 4.17247,10.0967 h 0.0609 c 0.36281,-1.345 1.97144,-6.64422 2.67158,-8.99123 0.14172,-0.46204 0.20124,-0.88438 0.20124,-1.16642 0,-0.3189 -0.17999,-0.60234 -0.96233,-0.60234 -0.20267,0 -0.34014,-0.0581 -0.34014,-0.17859 0,-0.14314 0.15731,-0.18141 0.46062,-0.18141 1.06295,0 1.90623,0.061 2.08623,0.061 0.14172,0 1.00485,-0.061 1.66672,-0.061 0.2211,0 0.36283,0.0383 0.36283,0.15732 0,0.14456 -0.0992,0.20268 -0.27921,0.20268 -0.20551,0 -0.48188,0.0227 -0.70156,0.10204 -0.48329,0.1814 -0.70155,0.98216 -1.12532,2.12591 -0.92406,2.52985 -3.03439,8.91329 -4.01515,11.92217 -0.22251,0.70297 -0.32314,0.9439 -0.58251,0.9439 -0.19984,0 -0.31888,-0.24093 -0.62076,-0.98075 l -4.17532,-10.05844 h -0.0397 c -0.37983,1.02469 -3.05,8.12953 -3.91312,9.97624 -0.38408,0.82202 -0.48329,1.06295 -0.72706,1.06295 -0.19984,0 -0.29905,-0.21826 -0.45636,-0.74123 z"
     id="path32"
     style="fill:#000d74;stroke:#000d74;stroke-width:3.11804;stroke-dasharray:none;stroke-opacity:1" />
  <path
     d="m 329.91379,69.808597 c 0,-1.0842 -0.20267,-1.52499 -0.46202,-2.1089 -0.14315,-0.32032 -2.83173,-4.73656 -3.53046,-5.77826 -0.50171,-0.74407 -1.00343,-1.24437 -1.3861,-1.46405 -0.26361,-0.14456 -0.60376,-0.26503 -0.84611,-0.26503 -0.15873,0 -0.30046,-0.0368 -0.30046,-0.17858 0,-0.12047 0.14173,-0.18141 0.38266,-0.18141 0.36,0 1.86798,0.0609 2.52843,0.0609 0.42235,0 1.24721,-0.0609 2.15002,-0.0609 0.20125,0 0.29904,0.0609 0.29904,0.18141 0,0.12047 -0.13889,0.14173 -0.44219,0.21827 -0.18142,0.0411 -0.28062,0.20125 -0.28062,0.36282 0,0.16015 0.0992,0.39826 0.24094,0.68313 0.28062,0.60093 3.09534,5.43669 3.4128,5.99793 0.19984,-0.48188 2.72969,-4.89812 3.0089,-5.52031 0.20267,-0.44361 0.28345,-0.78376 0.28345,-1.04453 0,-0.19842 -0.085,-0.42235 -0.42234,-0.50172 -0.18142,-0.0398 -0.36284,-0.0808 -0.36284,-0.20126 0,-0.14172 0.0992,-0.18141 0.34016,-0.18141 0.66612,0 1.30389,0.0609 1.88781,0.0609 0.44361,0 1.76593,-0.0609 2.15002,-0.0609 0.21684,0 0.35999,0.0398 0.35999,0.15874 0,0.14314 -0.16016,0.20125 -0.38125,0.20125 -0.20268,0 -0.58393,0.0822 -0.88579,0.24094 -0.42094,0.20409 -0.63921,0.44361 -1.08423,0.98359 -0.66187,0.80219 -3.46951,5.52172 -3.83233,6.38343 -0.3033,0.72283 -0.3033,1.34501 -0.3033,2.00829 v 1.64262 c 0,0.32456 0,1.16501 0.0609,2.00971 0.0411,0.58109 0.22251,1.0247 0.82344,1.10265 0.28062,0.0398 0.7228,0.0793 1.00343,0.0793 0.2211,0 0.32314,0.0609 0.32314,0.16298 0,0.14032 -0.16015,0.20126 -0.42093,0.20126 -1.26848,0 -2.52985,-0.0609 -3.07267,-0.0609 -0.50171,0 -1.76593,0.0609 -2.51,0.0609 -0.28063,0 -0.44362,-0.0398 -0.44362,-0.20126 0,-0.10203 0.10067,-0.16298 0.32456,-0.16298 0.2792,0 0.52015,-0.0368 0.70298,-0.0793 0.4011,-0.0808 0.57825,-0.52156 0.62077,-1.10265 0.0609,-0.8447 0.0609,-1.68515 0.0609,-2.00971 v -1.63979 h 0.002 z"
     id="path33"
     style="fill:#000d74;stroke:#000d74;stroke-width:3.11804;stroke-dasharray:none;stroke-opacity:1" />
  <path
     d="m 339.5513,67.421897 c 0,-3.43264 2.27049,-7.87015 8.28968,-7.87015 5.00017,0 8.10968,2.91251 8.10968,7.50734 0,4.59766 -3.21014,8.23015 -8.30669,8.23015 -5.76407,-0.001 -8.09267,-4.31562 -8.09267,-7.86734 m 13.59031,0.37842 c 0,-4.49562 -2.58938,-7.28623 -5.88172,-7.28623 -2.30875,0 -4.93921,1.28263 -4.93921,6.2828 0,4.17531 2.31158,7.48608 6.16657,7.48608 1.40029,0 4.65436,-0.67888 4.65436,-6.48265"
     id="path34"
     style="fill:#000d74;stroke:#000d74;stroke-width:3.11804;stroke-dasharray:none;stroke-opacity:1" />
  <path
     d="m 361.17901,65.655977 c 0,-3.0514 0,-3.61548 -0.0398,-4.25751 -0.0398,-0.68171 -0.2041,-0.99918 -0.86455,-1.14517 -0.15875,-0.0369 -0.5003,-0.0609 -0.78376,-0.0609 -0.21827,0 -0.33731,-0.0369 -0.33731,-0.17859 0,-0.14172 0.13889,-0.18141 0.44219,-0.18141 1.06296,0 2.32717,0.0609 2.74669,0.0609 0.68171,0 2.21096,-0.0609 2.83172,-0.0609 1.26564,0 2.60779,0.12048 3.69202,0.86172 0.56125,0.38266 1.36343,1.40593 1.36343,2.7481 0,1.48672 -0.62078,2.85439 -2.6489,4.49844 1.78718,2.24781 3.17187,4.03642 4.35672,5.27937 1.12249,1.16218 1.94734,1.3039 2.24922,1.36486 0.21827,0.0411 0.39967,0.0581 0.56124,0.0581 0.16016,0 0.23811,0.0609 0.23811,0.16297 0,0.15875 -0.1389,0.20127 -0.38126,0.20127 h -1.90623 c -1.12391,0 -1.62421,-0.0992 -2.15143,-0.38126 -0.85888,-0.46202 -1.6242,-1.40595 -2.7467,-2.95078 -0.8036,-1.10405 -1.72908,-2.4689 -1.9856,-2.77079 -0.0992,-0.11904 -0.2211,-0.14456 -0.36283,-0.14456 l -1.74326,-0.0354 c -0.0992,0 -0.16015,0.0354 -0.16015,0.15874 v 0.28061 c 0,1.86515 0,3.4525 0.0964,4.29295 0.0639,0.58392 0.18283,1.0261 0.78518,1.10406 0.30188,0.0397 0.74266,0.0808 0.98075,0.0808 0.16158,0 0.24378,0.061 0.24378,0.16299 0,0.1389 -0.14456,0.19983 -0.40109,0.19983 -1.16358,0 -2.6489,-0.0609 -2.94936,-0.0609 -0.38409,0 -1.64688,0.0609 -2.45047,0.0609 -0.26079,0 -0.4011,-0.0609 -0.4011,-0.19983 0,-0.10204 0.0822,-0.16299 0.32456,-0.16299 0.29763,0 0.53998,-0.0382 0.72139,-0.0808 0.4025,-0.0808 0.50172,-0.52014 0.58251,-1.10406 0.10067,-0.84187 0.10067,-2.4278 0.10067,-4.27453 z m 2.36828,1.58452 c 0,0.21968 0.0369,0.30046 0.17998,0.36141 0.42094,0.14171 1.02612,0.20125 1.525,0.20125 0.80076,0 1.06721,-0.0793 1.4272,-0.34015 0.60093,-0.4436 1.18202,-1.36484 1.18202,-3.01171 0,-2.85016 -1.88641,-3.67361 -3.07125,-3.67361 -0.50172,0 -0.8617,0.0213 -1.06297,0.0822 -0.14313,0.0382 -0.17998,0.12047 -0.17998,0.28064 z"
     id="path35"
     style="fill:#000d74;stroke:#000d74;stroke-width:3.11804;stroke-dasharray:none;stroke-opacity:1" />
  <path
     d="m 379.80206,66.538947 h 0.10342 c 0.67888,-0.74266 3.60982,-3.73736 4.19374,-4.41767 0.56124,-0.66186 1.00342,-1.16217 1.00342,-1.50657 0,-0.21827 -0.0822,-0.36141 -0.28203,-0.40109 -0.18141,-0.0382 -0.26079,-0.0793 -0.26079,-0.19984 0,-0.14173 0.0978,-0.18141 0.32173,-0.18141 0.42236,0 1.525,0.0609 2.06781,0.0609 0.6222,0 1.72625,-0.0609 2.34702,-0.0609 0.20409,0 0.34157,0.0397 0.34157,0.18141 0,0.14031 -0.0992,0.17858 -0.30188,0.17858 -0.27921,0 -0.78376,0.0822 -1.16218,0.21969 -0.62218,0.24376 -1.30531,0.6647 -2.16843,1.50656 -0.62078,0.60234 -3.65233,3.61406 -4.33547,4.33972 0.71999,0.94106 4.65435,5.17308 5.44095,5.91997 0.88153,0.84329 1.78577,1.74467 2.86715,2.16844 0.60376,0.24094 1.00486,0.29905 1.24295,0.29905 0.14315,0 0.26362,0.0411 0.26362,0.16298 0,0.1389 -0.0992,0.19983 -0.48046,0.19983 h -1.74751 c -0.60233,0 -0.96233,0 -1.38467,-0.0397 -1.08564,-0.0978 -1.62421,-0.54282 -2.48875,-1.30531 -0.88297,-0.78233 -4.83718,-5.41969 -5.25954,-5.99793 l -0.21825,-0.30472 h -0.10342 v 1.82829 c 0,1.84814 0,3.43124 0.0609,4.29436 0.0425,0.56125 0.21968,1.00486 0.7214,1.08563 0.28063,0.0398 0.72707,0.0808 0.98501,0.0808 0.16158,0 0.26077,0.0609 0.26077,0.16015 0,0.14032 -0.15732,0.20127 -0.38124,0.20127 -1.1239,0 -2.39095,-0.0609 -2.88984,-0.0609 -0.4606,0 -1.72625,0.0609 -2.52842,0.0609 -0.2622,0 -0.4011,-0.0609 -0.4011,-0.20127 0,-0.0992 0.0808,-0.16015 0.32173,-0.16015 0.30188,0 0.5414,-0.0382 0.72139,-0.0808 0.40252,-0.0808 0.50172,-0.52296 0.58392,-1.10405 0.10067,-0.8447 0.10067,-2.4278 0.10067,-4.27594 v -3.53328 c 0,-3.04999 0,-3.61548 -0.0398,-4.25751 -0.0398,-0.68029 -0.20409,-0.99919 -0.86454,-1.14374 -0.1559,-0.0383 -0.50173,-0.0609 -0.78234,-0.0609 -0.21968,0 -0.33873,-0.0382 -0.33873,-0.17858 0,-0.14031 0.1403,-0.18141 0.44219,-0.18141 1.06438,0 2.33,0.0609 2.80764,0.0609 0.48187,0 1.74608,-0.0609 2.43064,-0.0609 0.2792,0 0.42091,0.0411 0.42091,0.18141 0,0.14031 -0.11904,0.17858 -0.28204,0.17858 -0.19983,0 -0.32172,0.0227 -0.56124,0.0609 -0.53998,0.0992 -0.70013,0.4436 -0.73839,1.14374 -0.0425,0.64203 -0.0425,1.20752 -0.0425,4.25751 v 0.88296 z"
     id="path36"
     style="fill:#000d74;stroke:#000d74;stroke-width:3.11804;stroke-dasharray:none;stroke-opacity:1" />
  <path
     d="m 47.907568,17.832676 c -0.500301,-2.90826 -2.850151,-4.932136 -5.725814,-5.164571 -5.137642,-0.413845 -9.572313,2.334262 -14.556888,3.21581 -0.399673,0.06945 -0.935405,-0.779504 -1.418698,-1.264213 2.311584,-1.741839 1.996948,-5.1574851 -0.680294,-6.6328731 -0.184248,-0.211175 -0.117635,-2.178361 -0.01137,-2.26765 0.21826,-0.181412 1.926084,0.147397 2.168439,-0.06519 0.242355,-0.208342 0.194168,-2.256312 0.03827,-2.453313 -0.154484,-0.197002 -2.079151,0.01418 -2.188281,-0.117635 -0.107719,-0.133225 0.05386,-1.975689 -0.127557,-2.12025003 -0.128972,-0.103455 -0.663286,-0.114801 -0.959498,-0.111966 -0.297629,-0.0029 -0.831942,0.0085 -0.960916,0.111966 -0.181411,0.14597903 -0.01984,1.98702503 -0.127555,2.12025003 -0.10913,0.131808 -2.03238,-0.07937 -2.188281,0.117635 -0.154484,0.197001 -0.20267,2.244971 0.03968,2.454729 0.242354,0.211175 1.948759,-0.116216 2.167021,0.0652 0.104883,0.08929 0.172909,2.055056 -0.01137,2.267649 -2.677243,1.475389 -2.990462,4.8896181 -0.678877,6.6328731 -0.48471,0.48471 -1.020443,1.332244 -1.420116,1.264214 -4.983158,-0.880131 -9.41783,-3.629656 -14.5554713,-3.21581 -2.875663,0.231017 -5.225514,2.256311 -5.72581401,5.16457 -0.899973,5.236853 2.86290601,9.26193 4.68836501,13.706521 0.578249,1.403107 1.085637,3.289508 0.993512,4.912294 0,0 14.9197133,0 17.5771153,0.0014 h 0.20267 0.202673 c 2.6574,-0.0014 17.575694,-0.0014 17.575694,-0.0014 -0.09071,-1.622786 0.416682,-3.509187 0.994932,-4.912294 1.825457,-4.444591 5.588337,-8.469668 4.688364,-13.707938 M 22.319984,29.428866 c -0.462034,2.629055 -1.923249,4.298612 -3.137858,4.308533 -0.796513,0.0042 -1.437123,-0.299046 -2.01679,-0.807849 -0.800764,-0.700138 -1.454131,-1.852386 -1.244373,-2.532681 0.177159,-0.2296 2.332844,0.09922 2.485909,-0.114799 0.154485,-0.212593 -0.262196,-1.893488 -0.505968,-2.11175 -0.242355,-0.214008 -2.189699,0.07512 -2.450478,-0.138893 -0.259363,-0.214009 -0.501717,-2.294577 -0.768166,-2.422132 0,0 -2.059309,-0.30755 -2.208123,-0.01559 -0.150231,0.296211 0.694466,2.033797 0.549905,2.328592 -0.144564,0.296211 -2.869993,-0.259363 -2.918181,0.04677 -0.04818,0.30755 0.155901,1.836795 0.418098,2.06356 0.260779,0.226765 2.806215,0.242355 2.806215,0.242355 0.528646,0.402508 0.66754,1.223114 0.670374,2.062144 0.0042,1.065795 -0.824857,1.615699 -2.145763,1.245788 -2.4632333,-0.690211 -5.5174733,-6.033359 -7.3301753,-9.732462 -1.332244,-2.719761 -2.135842,-7.170022 1.362005,-8.503683 2.130174,-0.81352 4.3666433,-0.352903 6.6612203,0.327393 2.402291,0.714309 5.57133,1.679477 7.439306,2.840229 0.457782,0.283457 -0.545654,0.0567 1.111147,3.728866 0.771002,1.70924 1.543419,5.350234 1.221696,7.185613 m 14.717042,4.154049 c -1.320905,0.369909 -2.150015,-0.179995 -2.145763,-1.24579 0.0029,-0.83903 0.140311,-1.659635 0.670374,-2.062144 0,0 2.545436,-0.01559 2.806215,-0.242354 0.260781,-0.226765 0.464869,-1.756011 0.418097,-2.063561 -0.04819,-0.306133 -2.775034,0.249441 -2.918179,-0.04677 -0.144562,-0.294795 0.700136,-2.032379 0.549904,-2.328592 -0.151649,-0.29196 -2.208123,0.01559 -2.208123,0.01559 -0.266449,0.127554 -0.508803,2.208123 -0.769584,2.422131 -0.260779,0.212593 -2.206705,-0.07653 -2.449059,0.138894 -0.24519,0.218261 -0.659037,1.899157 -0.507388,2.111749 0.153066,0.214008 2.30875,-0.1148 2.487328,0.114799 0.20834,0.680295 -0.443609,1.832545 -1.244373,2.532681 -0.581084,0.508803 -1.220278,0.812101 -2.01679,0.807849 -1.216026,-0.0098 -2.675825,-1.679478 -3.137859,-4.308533 -0.32314,-1.835378 0.450695,-5.476371 1.220279,-7.185612 1.658219,-3.672174 0.653366,-3.44541 1.111148,-3.728865 1.869393,-1.160753 5.038433,-2.125921 7.440723,-2.840231 2.29316,-0.680295 4.529628,-1.142328 6.662636,-0.327391 3.49643,1.33366 2.691415,5.783922 1.359172,8.503683 -1.811285,3.699102 -4.865525,9.040832 -7.328758,9.732465"
     id="path37"
     style="fill:#000d74;stroke:#000d74;stroke-width:1.70075;stroke-dasharray:none;stroke-opacity:1" />
  <polygon
     points="33.016,33.018 33.016,30.839 20.332,30.839 20.046,30.839 7.362,30.839 7.362,33.018 20.046,33.018 20.332,33.018 "
     id="polygon37"
     transform="matrix(1.4172806,0,0,1.4172806,-4.1675723,-4.8211361)"
     style="fill:#000d74;stroke:#000d74;stroke-width:1.20001;stroke-dasharray:none;stroke-opacity:1" />
</svg>
